<?xml version="1.0" encoding="UTF-8"?>
<svg version="1.1" xmlns="http://www.w3.org/2000/svg" width="500" height="500">
<path d="M0 0 C7.55753373 6.3626054 12.12668791 13.03878399 13 23 C13 33.62091014 11.20340061 41.3128555 3.87890625 49.203125 C-1.7176503 54.55534125 -7.29297161 56.07282232 -15 56 C-21.89707524 55.52086132 -26.49114461 52.10070992 -31 47 C-33.62642428 42.16737932 -33.42989252 37.2218227 -32 32 C-30.25849657 28.73011419 -28.40003125 25.70001562 -25 24 C-17.7073955 23.42122186 -17.7073955 23.42122186 -14.9375 25.6875 C-14 28 -14 28 -13.9375 30.5625 C-15 33 -15 33 -17.9375 34.8125 C-21 36 -21 36 -23 36 C-22.53045985 39.44107712 -22.53045985 39.44107712 -21 43 C-17.69895409 44.99308433 -15.37846096 46.03446152 -11.5 45.9375 C-5.19540055 43.57327521 -0.98685418 41.20346638 2 35 C3.80066981 28.24164189 2.87239613 23.38475522 -0.08984375 17.12890625 C-1 15 -1 15 -1 12 C-1.804375 11.7525 -2.60875 11.505 -3.4375 11.25 C-6.25312846 10.26206019 -8.85975968 9.18039898 -11.5625 7.9375 C-19.67133009 4.30204118 -27.40927526 3.87499 -35.7734375 6.96484375 C-39.6635072 8.77338492 -42.81148853 11.15055315 -46 14 C-46.93005859 14.82951172 -46.93005859 14.82951172 -47.87890625 15.67578125 C-53.59732177 21.44359992 -55.79184462 28.31458421 -58 36 C-58.2475 36.84949219 -58.495 37.69898438 -58.75 38.57421875 C-64.84697395 64.86741889 -57.12568461 92.65402754 -43.25 115.078125 C-42.8375 115.71234375 -42.425 116.3465625 -42 117 C-42.165 115.9275 -42.33 114.855 -42.5 113.75 C-43.9072029 101.84128294 -43.46440099 91.33213178 -35.875 81.5 C-31.85844396 77.33816427 -27.69414712 75.70349201 -22 75 C-13.61757797 74.85194092 -7.56651102 76.47957726 -1.3125 82.1875 C4.5432336 88.40597816 5.59203839 94.67850425 5.34765625 103.09375 C4.64653676 108.95479387 2.62055409 112.59551979 -1.8125 116.4375 C-6.30328939 118.63886735 -9.9336503 119.59694547 -14.8125 118.1875 C-17 117 -17 117 -19 115 C-19.1953125 112.8359375 -19.1953125 112.8359375 -19.125 110.375 C-19.10695313 109.55773437 -19.08890625 108.74046875 -19.0703125 107.8984375 C-19.04710937 107.27195312 -19.02390625 106.64546875 -19 106 C-14.49646738 104.24252386 -10.82360189 103.80705592 -6 104 C-6.82622335 96.90987398 -6.82622335 96.90987398 -9.5625 90.4375 C-13.8766129 87.89327957 -18.19864321 86.66029241 -23.22265625 87.26953125 C-26.38321703 88.18520774 -28.36123072 89.14338455 -30.3515625 91.8125 C-34.61020688 99.90086055 -35.2480592 108.80068612 -33.12890625 117.62890625 C-30.25715566 126.80909255 -26.40341028 135.39270169 -20.4140625 143.01953125 C-19 145 -19 145 -18.1418457 147.39306641 C-16.89145373 150.24782063 -15.60876019 151.61146903 -13.31640625 153.69140625 C-8.82072163 158.02678436 -5.36884831 162.73569373 -1.9375 167.9375 C-1.33188232 168.854104 -0.72626465 169.77070801 -0.10229492 170.71508789 C7.82977851 183.03452603 12.68364344 195.49519585 15 210 C15.21269531 211.26263672 15.21269531 211.26263672 15.4296875 212.55078125 C15.9386757 216.14473449 15.98566571 219.1080151 15.50390625 222.73828125 C14.99070464 227.03294532 14.96548639 231.26851245 15.04296875 235.5859375 C15.054953 236.28146729 15.06693726 236.97699707 15.07928467 237.69360352 C15.09163147 238.40967773 15.10397827 239.12575195 15.11669922 239.86352539 C15.40800123 256.93976173 14.35130147 273.19953268 11 290 C10.79632813 291.03785645 10.59265625 292.07571289 10.3828125 293.14501953 C3.41779935 327.70674759 -8.25672243 362.23764647 -21.04516602 395.02758789 C-25.2701453 405.95882081 -27.51201882 415.53175264 -27.4375 427.3125 C-27.45748047 428.45267578 -27.47746094 429.59285156 -27.49804688 430.76757812 C-27.4942798 437.22057975 -27.20184086 441.03267526 -23 446 C-23 446.66 -23 447.32 -23 448 C-16.41406258 451.49276681 -10.22061734 452.77162418 -2.94921875 450.75390625 C-0.09209074 449.64884472 1.32699925 448.57920949 3 446 C3.99474494 441.71494488 4.07509924 439.30039697 3 435 C0.03 434.67 -2.94 434.34 -6 434 C-6 436.97 -6 439.94 -6 443 C-8.375 443.125 -8.375 443.125 -11 443 C-13.37040308 440.62959692 -13.34465793 439.93697247 -13.4375 436.6875 C-13.33540125 433.16509301 -13.04850087 432.07509813 -11.0625 429 C-7.06543123 426.38966937 -3.76221493 425.56248202 1 426 C5.88245421 428.48728799 10.23459188 431.70377563 12 437 C12.49891415 444.35898368 11.10336392 449.84495413 7 456 C6.01 456 5.02 456 4 456 C4 456.99 4 457.98 4 459 C-2.68688919 461.85888741 -7.85234068 462.23852969 -15 461 C-15 461.66 -15 462.32 -15 463 C-23.6663026 462.95987823 -28.2626006 459.7373994 -34.25 453.75 C-43.1895597 439.70212048 -42.55956177 420.9219562 -39.45726013 405.05450439 C-38.6083394 401.24023929 -37.4634411 397.51718417 -36.32421875 393.78125 C-36.0608522 392.91030197 -35.79748566 392.03935394 -35.52613831 391.14201355 C-33.43938988 384.30240011 -31.20658501 377.51708846 -28.92662048 370.73989868 C-12.74891235 324.63828217 -12.74891235 324.63828217 -19.53515625 277.62890625 C-20.57958807 275.57214098 -21.66127161 273.53350785 -22.79296875 271.5234375 C-24 269 -24 269 -24 265 C-24.66 265 -25.32 265 -26 265 C-26 264.34 -26 263.68 -26 263 C-26.66 263 -27.32 263 -28 263 C-28 262.34 -28 261.68 -28 261 C-28.94875 260.855625 -29.8975 260.71125 -30.875 260.5625 C-34 260 -34 260 -36 259 C-41.84638736 258.54041196 -47.57598865 258.613435 -53 261 C-55.67577229 264.23909277 -57.10464285 266.94455881 -58 271 C-57.24074219 271.02578125 -56.48148437 271.0515625 -55.69921875 271.078125 C-54.70535156 271.13484375 -53.71148437 271.1915625 -52.6875 271.25 C-51.70136719 271.29640625 -50.71523438 271.3428125 -49.69921875 271.390625 C-47 272 -47 272 -45.171875 273.828125 C-43.43182602 277.05301577 -43.55017686 279.40141489 -44 283 C-45.6584475 285.74004369 -46.97384689 286.71766186 -50.05859375 287.56640625 C-55.23801812 288.39616226 -58.51781213 287.98812525 -63 285 C-67.55118401 281.29714752 -68.24294478 275.56300399 -69 270 C-68.66505341 264.87113036 -67.41621816 260.52398293 -65 256 C-64.01 256 -63.02 256 -62 256 C-62 255.01 -62 254.02 -62 253 C-53.95587024 248.33611625 -47.33425022 246.03310018 -38 246 C-38.04125 244.72125 -38.0825 243.4425 -38.125 242.125 C-38.1953125 239.9453125 -38.1953125 239.9453125 -38 238 C-36 236 -36 236 -33.93359375 235.8125 C-27.20585213 236.31787026 -21.92376633 238.21895153 -17 243 C-17 243.99 -17 244.98 -17 246 C-16.4121875 246.06316406 -15.824375 246.12632812 -15.21875 246.19140625 C-9.91735891 248.1234273 -7.20022944 255.64132126 -4.765625 260.42578125 C-0.56109109 270.04769539 0.7088409 280.67072723 2 291 C3.32 281.43 4.64 271.86 6 262 C5.01 262 4.02 262 3 262 C2.96036133 261.20529297 2.92072266 260.41058594 2.87988281 259.59179688 C1.80629854 239.10472457 -1.07887924 221.34719752 -8.51171875 202.08203125 C-9.65137997 199.07734554 -10.52028351 196.19171371 -11 193 C-11.88945312 192.85498047 -11.88945312 192.85498047 -12.796875 192.70703125 C-15.45566858 191.85376593 -16.41581809 190.76653629 -18.25 188.6875 C-23.5896181 183.20112707 -28.20379628 180.80424469 -35.9375 180.5 C-41.51557626 180.67696942 -47.87334969 181.87334969 -52 186 C-51.99247727 189.18587726 -51.92109251 192.35833413 -51.78515625 195.54101562 C-51.7421875 197.55859375 -51.7421875 197.55859375 -52 201 C-55 203 -55 203 -58.4375 202.9375 C-62 202 -62 202 -64.375 200 C-67.20787023 194.77008573 -67.53714394 190.1869432 -66.125 184.4375 C-63.39211043 179.02232992 -58.00049229 174.53291482 -52.66796875 171.80859375 C-49.31774208 170.79322491 -46.17982436 170.57083127 -42.6875 170.375 C-40.80611328 170.26285156 -40.80611328 170.26285156 -38.88671875 170.1484375 C-37.93410156 170.09945312 -36.98148437 170.05046875 -36 170 C-49.52581467 166.84565889 -64.69356518 168.75723473 -77 175 C-78.66194738 175.67834587 -80.32598903 176.35199575 -82 177 C-82 177.66 -82 178.32 -82 179 C-82.99 179 -83.98 179 -85 179 C-85.11214844 179.71027344 -85.22429687 180.42054688 -85.33984375 181.15234375 C-86.05261963 184.22698053 -87.20393347 186.71763847 -88.5625 189.5625 C-92.17225572 198.12517636 -92.19457349 205.36043601 -89 214.0625 C-88.62875 214.94035156 -88.2575 215.81820312 -87.875 216.72265625 C-87 219 -87 219 -87 222 C-86.34 222 -85.68 222 -85 222 C-85 222.66 -85 223.32 -85 224 C-83.01178687 224.39764263 -81.00720923 224.71325582 -79 225 C-77.0509375 225.3403125 -77.0509375 225.3403125 -75.0625 225.6875 C-72.99138142 225.8015781 -72.99138142 225.8015781 -71 225 C-68.17785204 221.94589467 -66.14897256 218.5429007 -64 215 C-62 213 -62 213 -58.375 212.875 C-57.26125 212.91625 -56.1475 212.9575 -55 213 C-55 213.99 -55 214.98 -55 216 C-54.01 216 -53.02 216 -52 216 C-51.93859635 219.94737776 -51.94104681 223.55933112 -54.34375 226.828125 C-60.22419289 232.1205236 -66.80291613 234.58909472 -74.69921875 234.2890625 C-80.8901612 233.51125309 -86.64871924 231.58648513 -91 227 C-99.08028324 215.62700134 -100.04527722 205.14400395 -98.7578125 191.41796875 C-96.9482676 181.17003588 -90.8338408 172.59877581 -83 166 C-82.34 165.67 -81.68 165.34 -81 165 C-81.804375 164.071875 -82.60875 163.14375 -83.4375 162.1875 C-86.66628228 158.46198199 -87.36966186 155.14461019 -87.26953125 150.18359375 C-86.52870385 144.18181812 -83.61904983 140.1728181 -78.9375 136.5 C-76.22860591 134.54502077 -75.42270668 134 -72 134 C-72 133.34 -72 132.68 -72 132 C-73.32 131.67 -74.64 131.34 -76 131 C-76.125 128.625 -76.125 128.625 -76 126 C-72.35939842 122.35939842 -68.2173375 122.83961429 -63.25 122.8125 C-54.47605515 122.88508693 -47.22911294 125.14266912 -39 128 C-39.53109375 127.55269531 -40.0621875 127.10539063 -40.609375 126.64453125 C-41.31578125 126.03996094 -42.0221875 125.43539062 -42.75 124.8125 C-43.79414063 123.92498047 -43.79414063 123.92498047 -44.859375 123.01953125 C-61.13138838 107.66801498 -70.32819119 82.09436944 -71.3203125 60.20703125 C-71.8774917 39.97034703 -68.5321707 19.60312928 -54.125 4.3125 C-39.4389488 -9.08964795 -16.81637117 -11.40462321 0 0 Z M-64 131 C-64.33 131.66 -64.66 132.32 -65 133 C-61.7 133 -58.4 133 -55 133 C-55 132.67 -55 132.34 -55 132 C-57.97 131.67 -60.94 131.34 -64 131 Z M-77.375 145.25 C-78.22357867 148.98374616 -77.00986864 150.74368385 -75.078125 153.9375 C-73.85638726 156.27473741 -73.41413837 158.40713367 -73 161 C-72.35417969 160.855625 -71.70835937 160.71125 -71.04296875 160.5625 C-51.66732908 156.74568452 -32.52107322 157.8530745 -15.796875 168.9609375 C-12.34184941 171.47982487 -9.13040424 174.08799605 -6 177 C-9.58930121 169.77396188 -12.85970241 164.52866272 -19.0625 159.2421875 C-19.784375 158.62601563 -20.50625 158.00984375 -21.25 157.375 C-22.27867187 156.52035156 -22.27867187 156.52035156 -23.328125 155.6484375 C-25 154 -25 154 -26 151 C-26.66 151 -27.32 151 -28 151 C-28 150.34 -28 149.68 -28 149 C-31.14104638 147.69647708 -34.28860948 146.40944511 -37.4375 145.125 C-38.75524414 144.57779297 -38.75524414 144.57779297 -40.09960938 144.01953125 C-52.31008416 139.06324997 -66.60955417 135.05115658 -77.375 145.25 Z M-5 178 C-4 180 -4 180 -4 180 Z M0 186 C0.99 187.485 0.99 187.485 2 189 C2 188.01 2 187.02 2 186 C1.34 186 0.68 186 0 186 Z M-15 262 C-14.28970087 266.20592853 -12.98567027 270.04637262 -11.5625 274.0625 C-9.29214904 280.62661669 -7.86167615 287.09372995 -7 294 C-6.67 294 -6.34 294 -6 294 C-5.30169245 282.14816917 -7.52703961 272.52251123 -13 262 C-13.66 262 -14.32 262 -15 262 Z M-5 312 C-5.36463732 313.74784829 -5.7163078 315.49840502 -6.0625 317.25 C-6.25972656 318.22453125 -6.45695312 319.1990625 -6.66015625 320.203125 C-7.19677751 323.22661281 -7.19677751 323.22661281 -6 327 C-4.68 322.05 -3.36 317.1 -2 312 C-2.99 312 -3.98 312 -5 312 Z M-36 422 C-36 424.97 -36 427.94 -36 431 C-35.67 431 -35.34 431 -35 431 C-35 428.03 -35 425.06 -35 422 C-35.33 422 -35.66 422 -36 422 Z " fill="#A37740" transform="translate(441,21)"/>
</svg>
